<mxfile host="app.diagrams.net" modified="2024-03-07T03:15:30.482Z" agent="Mozilla/5.0 (Windows NT 10.0; Win64; x64) AppleWebKit/537.36 (KHTML, like Gecko) Chrome/122.0.0.0 Safari/537.36 Edg/122.0.0.0" etag="u8MpXQCjel2uVre1BLDB" version="24.0.2" type="device">
  <diagram name="第 1 页" id="p9LvLr9gLN56HjN3Prk9">
    <mxGraphModel dx="609" dy="631" grid="1" gridSize="10" guides="1" tooltips="1" connect="1" arrows="1" fold="1" page="1" pageScale="1" pageWidth="827" pageHeight="1169" math="0" shadow="0">
      <root>
        <mxCell id="0" />
        <mxCell id="1" parent="0" />
        <mxCell id="KOXig1rgmdm9e1q5dXbK-1" value="&lt;span style=&quot;color: rgb(213, 215, 226); font-family: &amp;quot;JetBrains Mono&amp;quot;, SFMono-Regular, Consolas, Menlo, monospace; font-size: 16px; font-variant-ligatures: none; text-align: left; background-color: rgb(33, 34, 44);&quot;&gt;UNTRUSTWORTHY&lt;/span&gt;" style="ellipse;whiteSpace=wrap;html=1;" vertex="1" parent="1">
          <mxGeometry x="130" y="190" width="120" height="80" as="geometry" />
        </mxCell>
        <mxCell id="KOXig1rgmdm9e1q5dXbK-2" value="&lt;span style=&quot;color: rgb(213, 215, 226); font-family: &amp;quot;JetBrains Mono&amp;quot;, SFMono-Regular, Consolas, Menlo, monospace; font-size: 11px; font-variant-ligatures: none; text-align: left; background-color: rgb(33, 34, 44);&quot;&gt;HIGHLY_TRUSTWORTHY&lt;/span&gt;" style="ellipse;whiteSpace=wrap;html=1;fontSize=11;" vertex="1" parent="1">
          <mxGeometry x="130" y="370" width="120" height="80" as="geometry" />
        </mxCell>
        <mxCell id="KOXig1rgmdm9e1q5dXbK-3" value="&lt;span style=&quot;color: rgb(213, 215, 226); font-family: &amp;quot;JetBrains Mono&amp;quot;, SFMono-Regular, Consolas, Menlo, monospace; font-size: 16px; font-variant-ligatures: none; text-align: left; background-color: rgb(33, 34, 44);&quot;&gt;SUSPICIOUS&lt;/span&gt;" style="ellipse;whiteSpace=wrap;html=1;" vertex="1" parent="1">
          <mxGeometry x="370" y="200" width="120" height="80" as="geometry" />
        </mxCell>
        <mxCell id="KOXig1rgmdm9e1q5dXbK-4" value="&lt;span style=&quot;color: rgb(213, 215, 226); font-family: &amp;quot;JetBrains Mono&amp;quot;, SFMono-Regular, Consolas, Menlo, monospace; font-size: 16px; font-variant-ligatures: none; text-align: left; background-color: rgb(33, 34, 44);&quot;&gt;TRUSTWORTHY&lt;/span&gt;" style="ellipse;whiteSpace=wrap;html=1;" vertex="1" parent="1">
          <mxGeometry x="380" y="370" width="120" height="80" as="geometry" />
        </mxCell>
        <mxCell id="KOXig1rgmdm9e1q5dXbK-5" value="" style="curved=1;endArrow=classic;html=1;rounded=0;entryX=0.658;entryY=-0.05;entryDx=0;entryDy=0;entryPerimeter=0;exitX=-0.025;exitY=0.342;exitDx=0;exitDy=0;exitPerimeter=0;" edge="1" parent="1" source="KOXig1rgmdm9e1q5dXbK-1" target="KOXig1rgmdm9e1q5dXbK-1">
          <mxGeometry width="50" height="50" relative="1" as="geometry">
            <mxPoint x="100" y="180" as="sourcePoint" />
            <mxPoint x="150" y="130" as="targetPoint" />
            <Array as="points">
              <mxPoint x="80" y="150" />
              <mxPoint x="190" y="110" />
            </Array>
          </mxGeometry>
        </mxCell>
        <mxCell id="KOXig1rgmdm9e1q5dXbK-7" value="0" style="edgeLabel;html=1;align=center;verticalAlign=middle;resizable=0;points=[];" vertex="1" connectable="0" parent="KOXig1rgmdm9e1q5dXbK-5">
          <mxGeometry x="-0.0429" y="2" relative="1" as="geometry">
            <mxPoint as="offset" />
          </mxGeometry>
        </mxCell>
        <mxCell id="KOXig1rgmdm9e1q5dXbK-8" value="" style="curved=1;endArrow=classic;html=1;rounded=0;entryX=0.658;entryY=-0.05;entryDx=0;entryDy=0;entryPerimeter=0;exitX=-0.025;exitY=0.342;exitDx=0;exitDy=0;exitPerimeter=0;" edge="1" parent="1">
          <mxGeometry width="50" height="50" relative="1" as="geometry">
            <mxPoint x="127" y="407" as="sourcePoint" />
            <mxPoint x="209" y="376" as="targetPoint" />
            <Array as="points">
              <mxPoint x="80" y="340" />
              <mxPoint x="190" y="300" />
            </Array>
          </mxGeometry>
        </mxCell>
        <mxCell id="KOXig1rgmdm9e1q5dXbK-10" value="1" style="edgeLabel;html=1;align=center;verticalAlign=middle;resizable=0;points=[];" vertex="1" connectable="0" parent="KOXig1rgmdm9e1q5dXbK-8">
          <mxGeometry x="-0.0447" y="-1" relative="1" as="geometry">
            <mxPoint x="1" as="offset" />
          </mxGeometry>
        </mxCell>
        <mxCell id="KOXig1rgmdm9e1q5dXbK-11" value="" style="curved=1;endArrow=classic;html=1;rounded=0;entryX=0.447;entryY=-0.017;entryDx=0;entryDy=0;entryPerimeter=0;" edge="1" parent="1" target="KOXig1rgmdm9e1q5dXbK-3">
          <mxGeometry width="50" height="50" relative="1" as="geometry">
            <mxPoint x="250" y="230" as="sourcePoint" />
            <mxPoint x="300" y="180" as="targetPoint" />
            <Array as="points">
              <mxPoint x="300" y="230" />
              <mxPoint x="250" y="130" />
              <mxPoint x="310" y="90" />
            </Array>
          </mxGeometry>
        </mxCell>
        <mxCell id="KOXig1rgmdm9e1q5dXbK-12" value="1" style="edgeLabel;html=1;align=center;verticalAlign=middle;resizable=0;points=[];" vertex="1" connectable="0" parent="KOXig1rgmdm9e1q5dXbK-11">
          <mxGeometry x="0.2883" y="-16" relative="1" as="geometry">
            <mxPoint as="offset" />
          </mxGeometry>
        </mxCell>
        <mxCell id="KOXig1rgmdm9e1q5dXbK-13" value="" style="curved=1;endArrow=classic;html=1;rounded=0;entryX=0.764;entryY=0.975;entryDx=0;entryDy=0;entryPerimeter=0;" edge="1" parent="1" source="KOXig1rgmdm9e1q5dXbK-3" target="KOXig1rgmdm9e1q5dXbK-1">
          <mxGeometry width="50" height="50" relative="1" as="geometry">
            <mxPoint x="300" y="280" as="sourcePoint" />
            <mxPoint x="350" y="230" as="targetPoint" />
            <Array as="points">
              <mxPoint x="350" y="280" />
              <mxPoint x="290" y="310" />
            </Array>
          </mxGeometry>
        </mxCell>
        <mxCell id="KOXig1rgmdm9e1q5dXbK-14" value="0" style="edgeLabel;html=1;align=center;verticalAlign=middle;resizable=0;points=[];" vertex="1" connectable="0" parent="KOXig1rgmdm9e1q5dXbK-13">
          <mxGeometry x="-0.0132" y="-6" relative="1" as="geometry">
            <mxPoint as="offset" />
          </mxGeometry>
        </mxCell>
        <mxCell id="KOXig1rgmdm9e1q5dXbK-15" value="" style="curved=1;endArrow=classic;html=1;rounded=0;entryX=1;entryY=0.5;entryDx=0;entryDy=0;" edge="1" parent="1" target="KOXig1rgmdm9e1q5dXbK-4">
          <mxGeometry width="50" height="50" relative="1" as="geometry">
            <mxPoint x="490" y="240" as="sourcePoint" />
            <mxPoint x="540" y="190" as="targetPoint" />
            <Array as="points">
              <mxPoint x="540" y="240" />
              <mxPoint x="560" y="270" />
            </Array>
          </mxGeometry>
        </mxCell>
        <mxCell id="KOXig1rgmdm9e1q5dXbK-16" value="1" style="edgeLabel;html=1;align=center;verticalAlign=middle;resizable=0;points=[];" vertex="1" connectable="0" parent="KOXig1rgmdm9e1q5dXbK-15">
          <mxGeometry x="0.0426" y="-5" relative="1" as="geometry">
            <mxPoint as="offset" />
          </mxGeometry>
        </mxCell>
        <mxCell id="KOXig1rgmdm9e1q5dXbK-17" value="" style="curved=1;endArrow=classic;html=1;rounded=0;entryX=0.342;entryY=1;entryDx=0;entryDy=0;entryPerimeter=0;" edge="1" parent="1" target="KOXig1rgmdm9e1q5dXbK-3">
          <mxGeometry width="50" height="50" relative="1" as="geometry">
            <mxPoint x="389" y="390" as="sourcePoint" />
            <mxPoint x="439" y="340" as="targetPoint" />
            <Array as="points">
              <mxPoint x="370" y="330" />
              <mxPoint x="360" y="320" />
            </Array>
          </mxGeometry>
        </mxCell>
        <mxCell id="KOXig1rgmdm9e1q5dXbK-18" value="0" style="edgeLabel;html=1;align=center;verticalAlign=middle;resizable=0;points=[];" vertex="1" connectable="0" parent="KOXig1rgmdm9e1q5dXbK-17">
          <mxGeometry x="-0.0035" y="-4" relative="1" as="geometry">
            <mxPoint y="1" as="offset" />
          </mxGeometry>
        </mxCell>
        <mxCell id="KOXig1rgmdm9e1q5dXbK-19" value="" style="curved=1;endArrow=classic;html=1;rounded=0;entryX=0.558;entryY=1.075;entryDx=0;entryDy=0;entryPerimeter=0;" edge="1" parent="1" target="KOXig1rgmdm9e1q5dXbK-4">
          <mxGeometry width="50" height="50" relative="1" as="geometry">
            <mxPoint x="210" y="450" as="sourcePoint" />
            <mxPoint x="260" y="400" as="targetPoint" />
            <Array as="points">
              <mxPoint x="320" y="510" />
              <mxPoint x="420" y="480" />
            </Array>
          </mxGeometry>
        </mxCell>
        <mxCell id="KOXig1rgmdm9e1q5dXbK-20" value="0" style="edgeLabel;html=1;align=center;verticalAlign=middle;resizable=0;points=[];" vertex="1" connectable="0" parent="KOXig1rgmdm9e1q5dXbK-19">
          <mxGeometry x="0.1295" y="6" relative="1" as="geometry">
            <mxPoint as="offset" />
          </mxGeometry>
        </mxCell>
        <mxCell id="KOXig1rgmdm9e1q5dXbK-21" value="" style="curved=1;endArrow=classic;html=1;rounded=0;exitX=0.019;exitY=0.633;exitDx=0;exitDy=0;exitPerimeter=0;entryX=1;entryY=0.5;entryDx=0;entryDy=0;" edge="1" parent="1" source="KOXig1rgmdm9e1q5dXbK-4" target="KOXig1rgmdm9e1q5dXbK-2">
          <mxGeometry width="50" height="50" relative="1" as="geometry">
            <mxPoint x="280" y="420" as="sourcePoint" />
            <mxPoint x="330" y="370" as="targetPoint" />
            <Array as="points">
              <mxPoint x="330" y="420" />
            </Array>
          </mxGeometry>
        </mxCell>
        <mxCell id="KOXig1rgmdm9e1q5dXbK-22" value="1" style="edgeLabel;html=1;align=center;verticalAlign=middle;resizable=0;points=[];" vertex="1" connectable="0" parent="KOXig1rgmdm9e1q5dXbK-21">
          <mxGeometry x="0.0052" y="-4" relative="1" as="geometry">
            <mxPoint as="offset" />
          </mxGeometry>
        </mxCell>
      </root>
    </mxGraphModel>
  </diagram>
</mxfile>
